HIERARCHY
ROOT Hips
{
  OFFSET 49.2189 50.5885 6.07016
  CHANNELS 6 Xposition Yposition Zposition Zrotation Xrotation Yrotation
  JOINT spine
  {
    OFFSET 0 8.81705 0.507024
    CHANNELS 3 Zrotation Xrotation Yrotation
    JOINT spine1
    {
      OFFSET 0 10.7766 0
      CHANNELS 3 Zrotation Xrotation Yrotation
      JOINT spine2
      {
        OFFSET 0 10.3259 0
        CHANNELS 3 Zrotation Xrotation Yrotation
        JOINT Neck
        {
          OFFSET 0 26.511 1.26395
          CHANNELS 3 Zrotation Xrotation Yrotation
          JOINT Head
          {
            OFFSET 0 8.00966 0
            CHANNELS 3 Zrotation Xrotation Yrotation
            End Site
            {
              OFFSET 0 19.3879 -6.39386
            }
          }
        }
        JOINT RightShoulder
        {
          OFFSET -4.34795 11.1512 -0.605422
          CHANNELS 3 Zrotation Xrotation Yrotation
          JOINT RightArm
          {
            OFFSET 0 14.6258 0
            CHANNELS 3 Zrotation Xrotation Yrotation
            JOINT RightArmRoll
            {
              OFFSET 0 7.3834 0
              CHANNELS 3 Zrotation Xrotation Yrotation
              JOINT RightForeArm
              {
                OFFSET 0 21.5052 0
                CHANNELS 3 Zrotation Xrotation Yrotation
                JOINT RightForeArmRoll
                {
                  OFFSET 0 8.28532 0
                  CHANNELS 3 Zrotation Xrotation Yrotation
                  JOINT RightHand
                  {
                    OFFSET 0 16.6268 0
                    CHANNELS 3 Zrotation Xrotation Yrotation
                    End Site
                    {
                      OFFSET 0 0 0
                    }
                  }
                }
              }
            }
          }
        }
        JOINT LeftShoulder
        {
          OFFSET 4.34795 11.1512 -0.605422
          CHANNELS 3 Zrotation Xrotation Yrotation
          JOINT LeftArm
          {
            OFFSET 0 14.6258 0
            CHANNELS 3 Zrotation Xrotation Yrotation
            JOINT LeftArmRoll
            {
              OFFSET 0 7.3834 0
              CHANNELS 3 Zrotation Xrotation Yrotation
              JOINT LeftForeArm
              {
                OFFSET 0 21.5052 0
                CHANNELS 3 Zrotation Xrotation Yrotation
                JOINT LeftForeArmRoll
                {
                  OFFSET 0 8.28532 0
                  CHANNELS 3 Zrotation Xrotation Yrotation
                  JOINT LeftHand
                  {
                    OFFSET 0 16.6268 0
                    CHANNELS 3 Zrotation Xrotation Yrotation
                    End Site
                    {
                      OFFSET 0 0 0
                    }
                  }
                }
              }
            }
          }
        }
      }
    }
  }
  JOINT RightUpLeg
  {
    OFFSET -7.8151 -1.43309 -1.20217
    CHANNELS 3 Zrotation Xrotation Yrotation
    JOINT RightUpLegRoll
    {
      OFFSET 0 19.4959 0
      CHANNELS 3 Zrotation Xrotation Yrotation
      JOINT RightLeg
      {
        OFFSET 0 -24.1427 0
        CHANNELS 3 Zrotation Xrotation Yrotation
        JOINT RightLegRoll
        {
          OFFSET 0 24.2217 0
          CHANNELS 3 Zrotation Xrotation Yrotation
          JOINT RightFoot
          {
            OFFSET 0 20.1605 0
            CHANNELS 3 Zrotation Xrotation Yrotation
            JOINT RightToeBase
            {
              OFFSET 0 16.8532 0
              CHANNELS 3 Zrotation Xrotation Yrotation
              End Site
              {
                OFFSET 0.00714343 8.16187 -0.94078
              }
            }
          }
        }
      }
    }
  }
  JOINT LeftUpLeg
  {
    OFFSET 7.8151 -1.43309 -1.20217
    CHANNELS 3 Zrotation Xrotation Yrotation
    JOINT LeftUpLegRoll
    {
      OFFSET 0 19.496 0
      CHANNELS 3 Zrotation Xrotation Yrotation
      JOINT LeftLeg
      {
        OFFSET 0 24.1426 0
        CHANNELS 3 Zrotation Xrotation Yrotation
        JOINT LeftLegRoll
        {
          OFFSET 0 24.4456 0
          CHANNELS 3 Zrotation Xrotation Yrotation
          JOINT LeftFoot
          {
            OFFSET 0 19.9366 0
            CHANNELS 3 Zrotation Xrotation Yrotation
            JOINT LeftToeBase
            {
              OFFSET 0 16.8532 0
              CHANNELS 3 Zrotation Xrotation Yrotation
              End Site
              {
                OFFSET -0.0320138 8.16187 -0.94078
              }
            }
          }
        }
      }
    }
  }
}
MOTION
Frames: 10
Frame Time: 0.00208333
48.5945 51.1105 9.58278 0.550834 17.9099 1.19013 0.45816 2.13726 0.172654 0.915279 8.27827 0.268859 0.914564 9.92323 0.253857 -4.88259 37.1348 5.72954 -10.7123 14.588 3.81305 43.498 -0.240819 1.83303 105.651 17.2713 -42.6238 -4.32889e-006 4.07565e-008 8.27355e-007 -66.3518 84.7243 59.4433 1.13335e-005 4.34086e-006 -3.00729 8.02894 -4.95143 0.697696 -60.4701 -3.87907 2.55779 -109.746 23.0375 24.3142 -4.0162e-006 -7.02984e-007 1.76949e-006 -2.03026 80.9251 4.93154 8.20921e-006 -2.40974e-006 3 -8.02889 -4.95145 -0.697703 33.2815 61.8074 151.955 180 7.01526e-015 178.835 0.0672331 73.5031 -0.908464 3.99492e-006 -3.99231e-006 2.08906 -30.1132 73.6961 26.912 8.12707 25.2332 -3.4849 -25.901 64.5446 -159.826 4.54188e-006 -4.6773e-006 -1.11806 171.84 -72.0444 170.253 -1.84252e-006 -1.61573e-006 -2.21701 27.91 75.3497 -28.8939 -8.133 25.2591 3.48547 
48.5894 51.0368 9.53492 0.559037 17.7111 1.12923 0.457012 2.1472 0.171649 0.913008 8.29812 0.266965 0.912315 9.94308 0.251998 -4.87313 37.2225 5.76925 -10.8317 14.5001 3.8466 43.6718 -0.184885 1.85156 105.471 17.4437 -42.5747 -4.32889e-006 4.07565e-008 8.27355e-007 -65.9366 84.78 59.078 1.13335e-005 4.34086e-006 -3.00729 8.02894 -4.95143 0.697696 -60.5474 -3.88386 2.56627 -109.667 23.1097 24.2153 -4.0162e-006 -7.02984e-007 1.76949e-006 -2.28746 80.8678 5.15247 8.20921e-006 -2.40974e-006 3 -8.02889 -4.95145 -0.697703 33.2545 61.9589 151.981 180 7.01525e-015 178.831 -0.0875413 73.48 -0.70847 3.99492e-006 -3.99232e-006 2.09008 -30.0164 73.6538 26.8325 8.12707 25.2332 -3.4849 -26.093 64.6286 -159.618 4.54188e-006 -4.6773e-006 -1.12085 171.767 -71.9903 170.151 -1.84252e-006 -1.61573e-006 -2.21775 27.8163 75.3068 -28.8073 -8.13415 25.276 3.48597 
48.5996 51.0101 9.48185 0.563378 17.5009 1.0633 0.456114 2.16031 0.170924 0.911229 8.32433 0.265564 0.910555 9.9693 0.250625 -4.86089 37.3149 5.81051 -10.9631 14.4068 3.88223 43.8616 -0.124595 1.87102 105.275 17.6292 -42.5168 -4.32889e-006 4.07565e-008 8.27355e-007 -65.4818 84.8402 58.677 1.13335e-005 4.34086e-006 -3.00729 8.02894 -4.95143 0.697696 -60.6364 -3.89148 2.57719 -109.575 23.1875 24.1092 -4.0162e-006 -7.02984e-007 1.76949e-006 -2.5537 80.8141 5.38229 8.20921e-006 -2.40974e-006 3 -8.02889 -4.95145 -0.697703 33.235 62.1301 152.006 180 7.01524e-015 178.827 -0.247288 73.4618 -0.503064 3.99492e-006 -3.99231e-006 2.09153 -29.9223 73.6126 26.7557 8.12707 25.2332 -3.4849 -26.3142 64.7222 -159.379 4.54188e-006 -4.6773e-006 -1.12391 171.683 -71.9368 170.036 -1.84252e-006 -1.61573e-006 -2.21891 27.7228 75.2642 -28.7215 -8.13546 25.2955 3.48654 
48.5725 50.9836 9.43485 0.564209 17.2811 0.993183 0.455486 2.17619 0.170463 0.90998 8.35608 0.264627 0.909322 10.001 0.249708 -4.84662 37.4113 5.85315 -11.104 14.309 3.91952 44.0655 -0.0606885 1.89114 105.064 17.8263 -42.4508 -4.32889e-006 4.07564e-008 8.27355e-007 -64.98 84.904 58.2327 1.13335e-005 4.34086e-006 -3.00729 8.02894 -4.95143 0.697696 -60.736 -3.90101 2.58997 -109.474 23.2703 23.9962 -4.0162e-006 -7.02984e-007 1.76949e-006 -2.82776 80.763 5.61963 8.20921e-006 -2.40974e-006 3 -8.02889 -4.95145 -0.697703 33.2225 62.3186 152.027 180 7.01523e-015 178.822 -0.410968 73.4484 -0.293536 3.99492e-006 -3.99231e-006 2.09331 -29.8302 73.5725 26.681 8.12707 25.2332 -3.4849 -26.5613 64.8242 -159.112 4.54188e-006 -4.6773e-006 -1.12719 171.589 -71.8842 169.909 -1.84252e-006 -1.61573e-006 -2.22042 27.6294 75.2218 -28.6365 -8.13693 25.3171 3.48716 
48.6223 50.9572 9.41035 0.5619 17.0533 0.919697 0.455147 2.19442 0.170252 0.909302 8.39254 0.264124 0.908658 10.0375 0.249215 -4.83106 37.5112 5.89698 -11.2519 14.2078 3.95805 44.2811 0.0060957 1.91166 104.841 18.0333 -42.3775 -4.32889e-006 4.07565e-008 8.27355e-007 -64.4235 84.9706 57.7377 1.13335e-005 4.34086e-006 -3.00729 8.02894 -4.95143 0.697696 -60.845 -3.91155 2.60401 -109.363 23.3573 23.8769 -4.0162e-006 -7.02984e-007 1.76949e-006 -3.10835 80.7132 5.86303 8.20921e-006 -2.40974e-006 3 -8.02889 -4.95145 -0.697703 33.2162 62.5221 152.045 180 7.01521e-015 178.817 -0.577546 73.4395 -0.0811681 3.99492e-006 -3.99231e-006 2.09534 -29.7396 73.5332 26.6082 8.12707 25.2332 -3.4849 -26.831 64.9336 -158.821 4.54188e-006 -4.6773e-006 -1.13065 171.486 -71.833 169.773 -1.84252e-006 -1.61573e-006 -2.22218 27.5359 75.1795 -28.552 -8.13852 25.3407 3.48783 
48.6026 50.9213 9.36787 0.556842 16.8194 0.843665 0.455116 2.21459 0.170276 0.909235 8.43288 0.264023 0.908602 10.0778 0.249116 -4.81497 37.614 5.94181 -11.4045 14.1044 3.99739 44.5063 0.0750189 1.93232 104.61 18.2487 -42.2975 -4.32889e-006 4.07565e-008 8.27355e-007 -63.8046 85.0393 57.1837 1.13335e-005 4.34086e-006 -3.00729 8.02894 -4.95143 0.697696 -60.9622 -3.92222 2.61874 -109.245 23.4477 23.7517 -4.0162e-006 -7.02984e-007 1.76949e-006 -3.3941 80.6635 6.11097 8.20921e-006 -2.40974e-006 3 -8.02889 -4.95145 -0.697703 33.2158 62.7382 152.06 180 7.0152e-015 178.811 -0.745994 73.4352 0.132761 3.99492e-006 -3.99231e-006 2.0975 -29.6498 73.4945 26.5366 8.12707 25.2332 -3.4849 -27.1198 65.0494 -158.51 4.54188e-006 -4.6773e-006 -1.13425 171.378 -71.7837 169.63 -1.84252e-006 -1.61573e-006 -2.2241 27.4422 75.1372 -28.4679 -8.14023 25.3659 3.48855 
48.6237 50.8913 9.33856 0.549445 16.5811 0.7659 0.455413 2.23629 0.17052 0.909818 8.47628 0.264296 0.909195 10.1212 0.249379 -4.79908 37.7193 5.98747 -11.5594 14 4.03715 44.7389 0.145342 1.95286 104.373 18.471 -42.2115 -4.32889e-006 4.07564e-008 8.27355e-007 -63.115 85.1091 56.5627 1.13335e-005 4.34086e-006 -3.00729 8.02894 -4.95143 0.697696 -61.0863 -3.9321 2.63356 -109.121 23.5409 23.6211 -4.0162e-006 -7.02984e-007 1.76949e-006 -3.68355 80.6129 6.36183 8.20921e-006 -2.40974e-006 3 -8.02889 -4.95145 -0.697703 33.2206 62.9645 152.071 180 7.01519e-015 178.806 -0.915281 73.4353 0.346972 3.99492e-006 -3.99231e-006 2.09971 -29.5603 73.4561 26.4659 8.12707 25.2332 -3.4849 -27.4244 65.1706 -158.181 4.54188e-006 -4.6773e-006 -1.13793 171.264 -71.7367 169.481 -1.84252e-006 -1.61573e-006 -2.22612 27.348 75.0949 -28.3841 -8.14203 25.3925 3.4893 
48.5952 50.8755 9.28518 0.540144 16.3401 0.687206 0.456056 2.25911 0.17097 0.911091 8.5219 0.264911 0.910476 10.1669 0.249975 -4.78414 37.8265 6.03377 -11.714 13.8956 4.07689 44.9768 0.216327 1.97302 104.132 18.6985 -42.1203 -4.32889e-006 4.07565e-008 8.27355e-007 -62.3465 85.179 55.8663 1.13335e-005 4.34086e-006 -3.00729 8.02894 -4.95143 0.697696 -61.2161 -3.94029 2.64789 -108.992 23.6361 23.4854 -4.0162e-006 -7.02984e-007 1.76949e-006 -3.97515 80.5601 6.61391 8.20921e-006 -2.40974e-006 3 -8.02889 -4.95145 -0.697703 33.2302 63.1987 152.077 180 7.01517e-015 178.8 -1.08438 73.4397 0.560181 3.99492e-006 -3.99231e-006 2.10187 -29.4703 73.4178 26.3957 8.12707 25.2332 -3.4849 -27.7412 65.2961 -157.839 4.54188e-006 -4.6773e-006 -1.14167 171.147 -71.6925 169.329 -1.84252e-006 -1.61573e-006 -2.22813 27.2532 75.0525 -28.3004 -8.14391 25.4202 3.4901 
48.6186 50.8489 9.24853 0.529396 16.0981 0.608382 0.457066 2.28262 0.171611 0.913094 8.56894 0.265839 0.912485 10.2139 0.250871 -4.77088 37.935 6.0805 -11.8661 13.7923 4.11621 45.2178 0.287235 1.99253 103.889 18.9296 -42.0246 -4.32889e-006 4.07564e-008 8.27355e-007 -61.4906 85.2481 55.086 1.13335e-005 4.34086e-006 -3.00729 8.02894 -4.95143 0.697696 -61.3505 -3.94591 2.66115 -108.861 23.7325 23.3451 -4.0162e-006 -7.02984e-007 1.76949e-006 -4.26726 80.504 6.86542 8.20921e-006 -2.40974e-006 3 -8.02889 -4.95145 -0.697703 33.2439 63.4383 152.078 180 7.01516e-015 178.795 -1.25224 73.4484 0.771101 3.99492e-006 -3.99231e-006 2.10388 -29.3794 73.3794 26.3257 8.12707 25.2332 -3.4849 -28.0664 65.4251 -157.487 4.54188e-006 -4.6773e-006 -1.14541 171.028 -71.6515 169.176 -1.84252e-006 -1.61573e-006 -2.23007 27.1576 75.0099 -28.2167 -8.14584 25.4486 3.49092 
48.5923 50.8426 9.20654 0.517683 15.8569 0.530217 0.458462 2.30642 0.172428 0.915865 8.61655 0.267049 0.915262 10.2615 0.252037 -4.76003 38.0442 6.12747 -12.0133 13.6913 4.15469 45.4598 0.357327 2.01115 103.649 19.1627 -41.9249 -4.32889e-006 4.07565e-008 8.27355e-007 -60.5395 85.3155 54.2137 1.13335e-005 4.34086e-006 -3.00729 8.02894 -4.95143 0.697696 -61.4882 -3.94805 2.67274 -108.727 23.8295 23.2007 -4.0162e-006 -7.02984e-007 1.76949e-006 -4.55815 80.4434 7.11448 8.20921e-006 -2.40974e-006 3 -8.02889 -4.95145 -0.697703 33.2614 63.6809 152.074 180 7.01514e-015 178.79 -1.41781 73.4613 0.978432 3.99492e-006 -3.99231e-006 2.10566 -29.287 73.3408 26.2553 8.12707 25.2332 -3.4849 -28.3963 65.5567 -157.13 4.54188e-006 -4.6773e-006 -1.14912 170.91 -71.6142 169.023 -1.84252e-006 -1.61573e-006 -2.23183 27.061 74.9669 -28.1328 -8.1478 25.4775 3.49177 
